<svg width="322" height="55" fill="none" xmlns="http://www.w3.org/2000/svg" class="styles_logo__w7Ckz"><path fill-rule="evenodd" clip-rule="evenodd" d="M25.28 29.148v-9.269L.929 29.401h-.06v9.493h.06l24.351 9.522v-9.233l-12.492-5.017 12.492-5.018ZM157.946 47.932v-9.268l12.468-4.988-12.468-4.989V19.42l24.328 9.522h.053v9.523h-.053l-24.328 9.468ZM147.509 6.343l-14.316 48.243h8.489l14.292-48.243h-8.465Z" fill="#8257E5"/><path fill-rule="evenodd" clip-rule="evenodd" d="M61.054 18.132a14.81 14.81 0 0 1 3.542 10.237v20.538h-8.5V30.234a8.778 8.778 0 0 0-1.772-5.738 5.903 5.903 0 0 0-2.119-1.635 5.797 5.797 0 0 0-2.61-.514c-5.312 0-7.969 3.873-7.969 11.618v14.941h-8.489V15.175h8.495v3.04a13.288 13.288 0 0 1 4.67-3.123 13.148 13.148 0 0 1 5.449-.92 11.483 11.483 0 0 1 5.07.92 12.397 12.397 0 0 1 4.233 3.04ZM71.232 1.154v48.237h8.495V1.154h-8.495ZM125.2 49.39h-7.084l-6.972-19.87-7.013 19.87h-7.084L85.169 15.607h9.074l6.7 20.219 6.895-20.219h6.642l6.901 20.278 6.694-20.278h9.044L125.2 49.391Z" fill="#fff"/><path d="M222.21 28.811v20.072h-8.725V30.659c0-4.622-2.645-7.733-6.677-7.733-4.953 0-8.194 3.306-8.194 11.37v14.61h-8.725V.838h8.725v18.056c2.58-2.574 6.016-3.961 10.378-3.961 7.929 0 13.218 5.684 13.218 13.878Z" fill="url(#a)"/><path d="M259.094 34.762h-25.119c.856 4.758 4.233 7.674 8.265 7.674 2.574 0 5.815-.33 8.194-4.362l7.798 1.647c-2.904 6.877-8.79 10.183-15.992 10.183-9.321 0-16.925-7.084-16.925-17.45 0-10.367 7.604-17.516 17.055-17.516 8.79 0 16.394 6.807 16.724 16.855v2.969Zm-24.853-6.151h15.939c-1.121-4.227-4.297-6.08-7.798-6.08-3.318 0-7.084 1.983-8.141 6.08Z" fill="url(#b)"/><path d="M295.329 47.915a10.478 10.478 0 0 1-5.218 1.387c-3.241 0-5.62-1.122-6.878-3.902-2.314 2.58-5.903 4.498-11.104 4.498-7.007 0-11.701-4.097-11.701-10.248 0-6.151 4.564-9.912 12.828-10.573l9.086-.726v-.33c0-3.307-2.049-5.756-5.904-5.756-3.17 0-5.354 1.723-6.015 5.023l-8.064-1.647c1.387-6.676 6.742-10.708 14.41-10.708 8.064 0 13.885 4.427 13.885 12.426v11.765c0 1.388.525 2.114 1.322 2.114.396 0 1.057-.065 2.639-.2l.714 6.877Zm-12.987-12.362v-1.258l-8.395.927c-3.371.396-4.829 1.984-4.829 4.097 0 2.314 1.919 3.637 4.829 3.637 4.853 0 8.395-3.182 8.395-7.403Z" fill="url(#c)"/><path d="M308.464 36.745c0 3.236 1.523 5.024 4.168 5.024a13.133 13.133 0 0 0 5.484-1.588l2.515 7.267c-3.442 1.854-5.821 2.45-8.595 2.45-7.864 0-12.297-4.498-12.297-12.491V23.06h-7.084v-7.137h7.084V3.958l8.725-2.645v14.611h12.757v7.137h-12.757v13.684Z" fill="url(#d)"/><defs><linearGradient id="a" x1="331.081" y1="22.964" x2="189.89" y2="23.349" gradientUnits="userSpaceOnUse"><stop stop-color="#FF008E"/><stop offset="1" stop-color="#8257E5"/></linearGradient><linearGradient id="b" x1="331.081" y1="22.964" x2="189.89" y2="23.349" gradientUnits="userSpaceOnUse"><stop stop-color="#FF008E"/><stop offset="1" stop-color="#8257E5"/></linearGradient><linearGradient id="c" x1="331.081" y1="22.964" x2="189.89" y2="23.349" gradientUnits="userSpaceOnUse"><stop stop-color="#FF008E"/><stop offset="1" stop-color="#8257E5"/></linearGradient><linearGradient id="d" x1="331.081" y1="22.964" x2="189.89" y2="23.349" gradientUnits="userSpaceOnUse"><stop stop-color="#FF008E"/><stop offset="1" stop-color="#8257E5"/></linearGradient></defs></svg>